REM Ripping Tool: trurip

FILE "3x3 Eyes - Sanjiyan Hensei (1994)(NEC)(JP)[HE100802-2].img" BINARY
  TRACK 01 AUDIO
    INDEX 01 00:00:00
  TRACK 02 MODE1/2352
    INDEX 00 00:17:21
    INDEX 01 00:20:21
  TRACK 03 AUDIO
    INDEX 00 17:52:23
    INDEX 01 17:54:23
  TRACK 04 AUDIO
    INDEX 01 19:35:21
  TRACK 05 AUDIO
    INDEX 01 21:57:09
  TRACK 06 AUDIO
    INDEX 01 25:15:25
  TRACK 07 MODE1/2352
    INDEX 00 32:50:06
    INDEX 01 32:53:06

REM DISC HASHES
REM CRC32 : 1322b43a
REM MD5   : f64027118496568d9d4b56cfa130e4b4
REM SHA1  : ed23b51147065a6c8de741ce077e790667bc2ed4

REM Gap Append Method: Prev [crc32]
REM Trk 01: c4bf1775
REM Trk 02: 6198e94e
REM Trk 03: b1911049
REM Trk 04: 0a5b5072
REM Trk 05: 3c31cdf8
REM Trk 06: a887cb49
REM Trk 07: 7c559797

REM Gap Append Method: Prev [md5]
REM Trk 01: 53fd2aa2f7f1add206c3c4239f217b14
REM Trk 02: a88a3aeca61796cf60219e355f508b6a
REM Trk 03: 639059c73682bcf10cfb8f8184a0cced
REM Trk 04: 951d6cfdf8a7e78149a63e8597cf16eb
REM Trk 05: 7e1cfa1cfeb93573d3f98c26adcbaa1d
REM Trk 06: cb3a21e085410f44dd940b13fb5efacb
REM Trk 07: 8dfe80d43068c3064869b2fc0182f0ea

REM Gap Append Method: Prev [sha1]
REM Trk 01: bbedeb154954cd99304ec10d78a418898a19f49b
REM Trk 02: 646ae08159950831788c0d7ff409c51045fac798
REM Trk 03: 71401b8594b558ffc3eb21cb509c2e6d3eaf839a
REM Trk 04: f8350c97063d7e8cccc7ce17ebca578fc57ea86c
REM Trk 05: 95ca3f0033386effa0970e56287554ef62145924
REM Trk 06: 327098b175d8b21f4dcfe494a7096d26cd447b46
REM Trk 07: 39715283fb17de3d234b6f2f7bc433e170335736

REM Gap Append Method: None [crc32]
REM Trk 01: 1e75a8a5
REM Trk 02: 69900475
REM Trk 03: b1911049
REM Trk 04: 0a5b5072
REM Trk 05: 3c31cdf8
REM Trk 06: 5e429ab1
REM Trk 07: 7c559797
REM Gap 02: 5b4d5fed
REM Gap 03: 7abe247f
REM Gap 07: 41a35b87

REM Gap Append Method: None [md5]
REM Trk 01: 6d021840620341dfa8d8b083dde16cf8
REM Trk 02: 3e703d2870942dbad34a2702fde3f938
REM Trk 03: 639059c73682bcf10cfb8f8184a0cced
REM Trk 04: 951d6cfdf8a7e78149a63e8597cf16eb
REM Trk 05: 7e1cfa1cfeb93573d3f98c26adcbaa1d
REM Trk 06: 4e84b5d08e3188cbab302454f405fa33
REM Trk 07: 8dfe80d43068c3064869b2fc0182f0ea
REM Gap 02: 31e0f231eb9247a2543bbb7c70b84bf9
REM Gap 03: 9df204fbc98bb8965081cb30a89715fc
REM Gap 07: 2bd5256a4658a93a8d63d48536693d5b

REM Gap Append Method: None [sha1]
REM Trk 01: 1fe702fb2bf48aad06d603a67d700bf16f5f12c1
REM Trk 02: 2806f2dc8318e2188c9495d97acde9e1d2aa1435
REM Trk 03: 71401b8594b558ffc3eb21cb509c2e6d3eaf839a
REM Trk 04: f8350c97063d7e8cccc7ce17ebca578fc57ea86c
REM Trk 05: 95ca3f0033386effa0970e56287554ef62145924
REM Trk 06: d5d07a319d06b2d199529797596b3638f0dd685d
REM Trk 07: 39715283fb17de3d234b6f2f7bc433e170335736
REM Gap 02: 0bc0e46a6d6bd272bc7a43ebde47e5103c546725
REM Gap 03: cbe29e0bd725ef1194f8c47619dd42078e841de2
REM Gap 07: f9ca849d326f1dfd560ffcdba06d3eb5cc80074a

REM Gap Append Method: Next [crc32]
REM Trk 01: 1e75a8a5
REM Trk 02: 983a1e09
REM Trk 03: d2fb7f56
REM Trk 04: 0a5b5072
REM Trk 05: 3c31cdf8
REM Trk 06: 5e429ab1
REM Trk 07: 542bcd60

REM Gap Append Method: Next [md5]
REM Trk 01: 6d021840620341dfa8d8b083dde16cf8
REM Trk 02: 5c90aec3976a1d9cad576a108e397ee3
REM Trk 03: bed8cee31fd99e74e9eed4a88a93555a
REM Trk 04: 951d6cfdf8a7e78149a63e8597cf16eb
REM Trk 05: 7e1cfa1cfeb93573d3f98c26adcbaa1d
REM Trk 06: 4e84b5d08e3188cbab302454f405fa33
REM Trk 07: 6f798e3ea39d0121cdbaf37efa48f531

REM Gap Append Method: Next [sha1]
REM Trk 01: 1fe702fb2bf48aad06d603a67d700bf16f5f12c1
REM Trk 02: 4fca0f134d0b0d66a3a5c427e99cd1d8b2a1f479
REM Trk 03: 07bda2e286418b85eb1de120e2f2e563d5dd8218
REM Trk 04: f8350c97063d7e8cccc7ce17ebca578fc57ea86c
REM Trk 05: 95ca3f0033386effa0970e56287554ef62145924
REM Trk 06: d5d07a319d06b2d199529797596b3638f0dd685d
REM Trk 07: 2ccaed7dd010bf8c7fd333741ab4864c72fc8f02

